<svg xmlns="http://www.w3.org/2000/svg" width="66" height="66" viewBox="0 0 66 66" fill="none"><path d="M16.061 14.127C16.061 12.5952 17.3028 11.3535 18.8345 11.3535H47.66C49.1917 11.3535 50.4334 12.5952 50.4334 14.127V24.8524C50.4334 25.4651 49.9367 25.9618 49.324 25.9618H17.1704C16.5577 25.9618 16.061 25.4651 16.061 24.8524V14.127Z" fill="#0E0E0E" stroke="#FFE4A8" stroke-width="2.60303"></path><path d="M16.061 31.9856C16.061 31.3729 16.5577 30.8762 17.1704 30.8762H49.6587C50.2714 30.8762 50.7681 31.3729 50.7681 31.9856V51.9639C50.7681 53.4956 49.5264 54.7373 47.9947 54.7373H18.8345C17.3028 54.7373 16.061 53.4956 16.061 51.9639V31.9856Z" fill="#0E0E0E" stroke="#FFE4A8" stroke-width="2.60303"></path><rect x="44.3823" y="35" width="2.77345" height="7.76566" rx="1.38672" fill="#FFE4A8"></rect><rect x="44.3823" y="15.0808" width="2.77345" height="7.76566" rx="1.38672" fill="#FFE4A8"></rect></svg>