<svg xmlns="http://www.w3.org/2000/svg" width="66" height="66" viewBox="0 0 66 66" fill="none"><path d="M39.5467 19.5591L39.8534 19.8659L40.1602 19.5591L41.8545 17.8648C45.0138 14.7056 50.4157 16.9431 50.4157 21.411V52.3305C50.4157 53.8372 51.6371 55.0586 53.1437 55.0586C54.6504 55.0586 55.8718 53.8372 55.8718 52.3305V21.411C55.8718 12.0821 44.5929 7.41027 37.9964 14.0067L36.3021 15.7011L35.9953 16.0078L36.3021 16.3146L39.5467 19.5591Z" fill="#FFE4A8" stroke="#FFE4A8" stroke-width="0.867677"></path><rect x="30.9233" y="16.6907" width="12.0448" height="4.58849" rx="2.29424" transform="rotate(45 30.9233 16.6907)" fill="#FFE4A8" stroke="#FFE4A8" stroke-width="1.14712"></rect><mask id="path-3-outside-1_2121_4458" maskUnits="userSpaceOnUse" x="9.33694" y="9.24418" width="36.7696" height="36.7696" fill="black"><rect fill="white" x="9.33694" y="9.24418" width="36.7696" height="36.7696"></rect><path fill-rule="evenodd" clip-rule="evenodd" d="M31.7107 40.7388C32.129 41.5027 33.2287 41.7333 33.7461 41.0326C34.4088 40.1352 34.9615 39.1585 35.3903 38.1232C36.0821 36.453 36.4382 34.6629 36.4382 32.8551C36.4382 31.0473 36.0821 29.2573 35.3903 27.5871C34.6985 25.9169 33.6845 24.3994 32.4062 23.1211C31.1279 21.8428 29.6104 20.8288 27.9402 20.137C26.27 19.4451 24.4799 19.0891 22.6721 19.0891C20.8644 19.0891 19.0743 19.4451 17.4041 20.137C16.3688 20.5658 15.3921 21.1185 14.4947 21.7812C13.7941 22.2985 14.0246 23.3982 14.7885 23.8164C17.2536 25.1661 20.6953 27.8834 24.1695 31.3576C27.6438 34.8319 30.3611 38.2736 31.7107 40.7388Z"></path></mask><path fill-rule="evenodd" clip-rule="evenodd" d="M31.7107 40.7388C32.129 41.5027 33.2287 41.7333 33.7461 41.0326C34.4088 40.1352 34.9615 39.1585 35.3903 38.1232C36.0821 36.453 36.4382 34.6629 36.4382 32.8551C36.4382 31.0473 36.0821 29.2573 35.3903 27.5871C34.6985 25.9169 33.6845 24.3994 32.4062 23.1211C31.1279 21.8428 29.6104 20.8288 27.9402 20.137C26.27 19.4451 24.4799 19.0891 22.6721 19.0891C20.8644 19.0891 19.0743 19.4451 17.4041 20.137C16.3688 20.5658 15.3921 21.1185 14.4947 21.7812C13.7941 22.2985 14.0246 23.3982 14.7885 23.8164C17.2536 25.1661 20.6953 27.8834 24.1695 31.3576C27.6438 34.8319 30.3611 38.2736 31.7107 40.7388Z" fill="#0E0E0E"></path><path d="M35.3903 38.1232L32.9854 37.127L35.3903 38.1232ZM36.4382 32.8551L33.8352 32.8551L33.8352 32.8551L36.4382 32.8551ZM35.3903 27.5871L37.7952 26.5909L35.3903 27.5871ZM27.9402 20.137L26.9441 22.5418L27.9402 20.137ZM22.6721 19.0891V16.486H22.6721L22.6721 19.0891ZM17.4041 20.137L18.4002 22.5418L17.4041 20.137ZM31.7107 40.7388L29.4275 41.9888L31.7107 40.7388ZM35.8401 42.5789C36.6281 41.5118 37.2853 40.3504 37.7952 39.1193L32.9854 37.127C32.6377 37.9666 32.1895 38.7586 31.6521 39.4864L35.8401 42.5789ZM37.7952 39.1193C38.6178 37.1333 39.0412 35.0047 39.0412 32.8551L33.8352 32.8551C33.8352 34.3211 33.5464 35.7727 32.9854 37.127L37.7952 39.1193ZM39.0412 32.8551C39.0412 30.7055 38.6178 28.5769 37.7952 26.5909L32.9854 28.5832C33.5464 29.9376 33.8352 31.3892 33.8352 32.8551L39.0412 32.8551ZM37.7952 26.5909C36.9726 24.605 35.7668 22.8004 34.2468 21.2804L30.5656 24.9617C31.6022 25.9983 32.4244 27.2289 32.9854 28.5832L37.7952 26.5909ZM34.2468 21.2804C32.7268 19.7604 30.9223 18.5547 28.9363 17.7321L26.9441 22.5418C28.2984 23.1028 29.529 23.9251 30.5656 24.9617L34.2468 21.2804ZM28.9363 17.7321C26.9503 16.9094 24.8218 16.486 22.6721 16.486L22.6721 21.6921C24.1381 21.6921 25.5897 21.9808 26.9441 22.5418L28.9363 17.7321ZM22.6721 16.486C20.5225 16.486 18.394 16.9094 16.408 17.7321L18.4002 22.5418C19.7546 21.9808 21.2062 21.6921 22.6721 21.6921L22.6721 16.486ZM16.408 17.7321C15.1769 18.242 14.0155 18.8992 12.9484 19.6872L16.0409 23.8751C16.7687 23.3378 17.5607 22.8896 18.4002 22.5418L16.408 17.7321ZM13.5384 26.0997C15.7003 27.2833 18.9425 29.8119 22.3288 33.1982L26.0101 29.517C22.448 25.9549 18.807 23.0489 16.0385 21.5332L13.5384 26.0997ZM22.3288 33.1982C25.7153 36.5847 28.2439 39.827 29.4275 41.9888L33.994 39.4888C32.4783 36.7202 29.5722 33.0791 26.0101 29.517L22.3288 33.1982ZM12.9484 19.6872C11.6763 20.6265 11.3272 22.0828 11.525 23.2653C11.7153 24.4034 12.4206 25.4877 13.5384 26.0997L16.0385 21.5332C16.3924 21.7269 16.6005 22.0523 16.6597 22.4066C16.7264 22.8054 16.6124 23.4532 16.0409 23.8751L12.9484 19.6872ZM31.6521 39.4864C32.0741 38.9149 32.7219 38.8009 33.1207 38.8676C33.4749 38.9268 33.8003 39.1349 33.994 39.4888L29.4275 41.9888C30.0395 43.1066 31.1238 43.8119 32.2618 44.0023C33.4444 44.2001 34.9007 43.851 35.8401 42.5789L31.6521 39.4864Z" fill="#FFE4A8" mask="url(#path-3-outside-1_2121_4458)"></path><circle cx="13.2681" cy="32.4284" r="1.72068" transform="rotate(45 13.2681 32.4284)" fill="#FFE4A8"></circle><circle cx="11.5469" cy="39.3111" r="1.72068" transform="rotate(45 11.5469 39.3111)" fill="#FFE4A8"></circle><circle cx="17.729" cy="36.8897" r="1.72068" transform="rotate(45 17.729 36.8897)" fill="#FFE4A8"></circle><circle cx="16.0083" cy="43.7724" r="1.72068" transform="rotate(45 16.0083 43.7724)" fill="#FFE4A8"></circle><circle cx="22.1904" cy="41.351" r="1.72068" transform="rotate(45 22.1904 41.351)" fill="#FFE4A8"></circle></svg>