<svg xmlns="http://www.w3.org/2000/svg" width="66" height="66" viewBox="0 0 66 66" fill="none"><path fill-rule="evenodd" clip-rule="evenodd" d="M48.6503 42.5315C49.244 41.414 49.6404 40.2416 49.8313 39.0464C49.9768 38.1358 49.2161 37.3838 48.294 37.3838H32.7112L17.1285 37.3838C16.2064 37.3838 15.4457 38.1358 15.5912 39.0464C15.7821 40.2416 16.1785 41.414 16.7721 42.5315C17.6391 44.1635 18.9099 45.6464 20.512 46.8955C22.114 48.1446 24.0159 49.1354 26.109 49.8114C26.4682 49.9274 26.705 50.2799 26.63 50.6498C26.235 52.5984 25.2047 54.2533 23.8136 55.2886C23.8093 55.2918 23.8068 55.2968 23.8068 55.3022C23.8068 55.3116 23.8144 55.3192 23.8237 55.3192H41.0426C41.0517 55.3192 41.0591 55.3117 41.0591 55.3026C41.0591 55.2973 41.0567 55.2924 41.0524 55.2893C39.827 54.3776 38.8814 52.9852 38.4033 51.3348C38.2112 50.6714 38.6562 50.0237 39.3134 49.8114C41.4066 49.1354 43.3085 48.1446 44.9105 46.8955C46.5125 45.6464 47.7833 44.1635 48.6503 42.5315Z" fill="#0E0E0E"></path><path d="M48.6503 42.5315L49.7997 43.1421V43.1421L48.6503 42.5315ZM32.7112 37.3838V38.6853V37.3838ZM16.7721 42.5315L17.9215 41.9209L16.7721 42.5315ZM20.512 46.8955L21.3123 45.8691H21.3123L20.512 46.8955ZM44.9105 46.8955L45.7108 47.9219L44.9105 46.8955ZM38.4033 51.3348L39.6534 50.9726L38.4033 51.3348ZM26.63 50.6498L25.3544 50.3913L26.63 50.6498ZM23.8136 55.2886L23.0365 54.2445L23.8136 55.2886ZM41.0524 55.2893L41.8293 54.2451L41.0524 55.2893ZM49.8313 39.0464L48.5461 38.8411L49.8313 39.0464ZM48.5461 38.8411C48.3787 39.8892 48.0299 40.9251 47.501 41.9209L49.7997 43.1421C50.458 41.9029 50.9021 40.5941 51.1165 39.2517L48.5461 38.8411ZM32.7112 38.6853H48.294V36.0823H32.7112V38.6853ZM17.1285 38.6853L32.7112 38.6853V36.0823L17.1285 36.0823L17.1285 38.6853ZM17.9215 41.9209C17.3925 40.9251 17.0438 39.8892 16.8764 38.8411L14.3059 39.2517C14.5204 40.5941 14.9644 41.9029 15.6227 43.1421L17.9215 41.9209ZM21.3123 45.8691C19.8401 44.7212 18.6945 43.3759 17.9215 41.9209L15.6227 43.1421C16.5838 44.9511 17.9798 46.5715 19.7117 47.9219L21.3123 45.8691ZM26.509 48.5729C24.5487 47.9398 22.7847 47.0172 21.3123 45.8691L19.7117 47.9219C21.4433 49.272 23.4831 50.3311 25.709 51.0499L26.509 48.5729ZM25.3544 50.3913C25.0168 52.0569 24.1458 53.419 23.0365 54.2445L24.5907 56.3327C26.2636 55.0876 27.4533 53.1399 27.9056 50.9084L25.3544 50.3913ZM23.8237 56.6207H41.0426V54.0177H23.8237V56.6207ZM41.8293 54.2451C40.853 53.5187 40.0601 52.3765 39.6534 50.9726L37.1532 51.6969C37.7027 53.5939 38.8011 55.2366 40.2756 56.3335L41.8293 54.2451ZM44.1102 45.8691C42.6378 47.0172 40.8738 47.9398 38.9134 48.5729L39.7134 51.0499C41.9394 50.3311 43.9792 49.272 45.7108 47.9219L44.1102 45.8691ZM47.501 41.9209C46.728 43.3759 45.5824 44.7212 44.1102 45.8691L45.7108 47.9219C47.4427 46.5715 48.8387 44.9511 49.7997 43.1421L47.501 41.9209ZM39.6534 50.9726C39.6596 50.9938 39.662 51.0223 39.6575 51.0507C39.6533 51.077 39.6453 51.0909 39.6439 51.0931C39.6429 51.0947 39.6472 51.0875 39.6608 51.0771C39.674 51.0669 39.692 51.0569 39.7134 51.0499L38.9134 48.5729C37.753 48.9477 36.7201 50.2018 37.1532 51.6969L39.6534 50.9726ZM41.0426 56.6207C41.7704 56.6207 42.3606 56.0306 42.3606 55.3026H39.7576C39.7576 54.5929 40.333 54.0177 41.0426 54.0177V56.6207ZM22.5053 55.3022C22.5053 56.0304 23.0956 56.6207 23.8237 56.6207V54.0177C24.5332 54.0177 25.1083 54.5928 25.1083 55.3022H22.5053ZM25.709 51.0499C25.5226 50.9897 25.2809 50.7541 25.3544 50.3913L27.9056 50.9084C28.1291 49.8057 27.4138 48.8651 26.509 48.5729L25.709 51.0499ZM23.0365 54.2445C22.7021 54.4934 22.5053 54.8856 22.5053 55.3022H25.1083C25.1083 55.7081 24.9165 56.0902 24.5907 56.3327L23.0365 54.2445ZM17.1285 36.0823C15.5546 36.0823 14.0117 37.4101 14.3059 39.2517L16.8764 38.8411C16.873 38.8198 16.8758 38.8117 16.8768 38.8089C16.8785 38.8036 16.8843 38.7898 16.9023 38.7709C16.9413 38.7299 17.02 38.6853 17.1285 38.6853L17.1285 36.0823ZM42.3606 55.3026C42.3606 54.886 42.1637 54.4939 41.8293 54.2451L40.2756 56.3335C39.9496 56.091 39.7576 55.7086 39.7576 55.3026H42.3606ZM51.1165 39.2517C51.4107 37.4101 49.8679 36.0823 48.294 36.0823V38.6853C48.4025 38.6853 48.4812 38.7299 48.5202 38.7709C48.5382 38.7898 48.544 38.8036 48.5457 38.8089C48.5466 38.8117 48.5495 38.8198 48.5461 38.8411L51.1165 39.2517Z" fill="#FFE4A8"></path><path d="M18.0149 14.7224C17.9975 14.5081 18.1667 14.3246 18.3817 14.3246H46.4829C46.6979 14.3246 46.8672 14.5081 46.8498 14.7224L45.451 31.9748C45.4355 32.1659 45.2759 32.3131 45.0841 32.3131H19.7806C19.5888 32.3131 19.4292 32.1659 19.4137 31.9748L18.0149 14.7224Z" fill="#0E0E0E" stroke="#FFE4A8" stroke-width="2.60303"></path><rect x="13.2324" y="35.2146" width="39.0455" height="4.33838" rx="2.16919" fill="#FFE4A8"></rect><rect x="15.459" y="11.3535" width="33.9482" height="3.33917" rx="1.66958" fill="#FFE4A8"></rect><rect x="42.1719" y="18.0319" width="7.79139" height="2.58647" rx="1.29324" fill="#FFE4A8"></rect></svg>